Normalized EMG Linear Envelopes
nRows=59
nColumns=17

endheader
time	        VM	        VL	        RF	       GRA	        TA	   ADDLONG	   SEMIMEM	      BFLH	        GM	        GL	       TFL	   GLUTMAX	   GLUTMED	      PIRI	    OBTINT	        QF	
2.3665	  0.026024	  0.014082	  0.104346	  0.119407	  0.110407	  0.032214	  0.048505	  0.042088	  0.056508	  0.011557	  0.103888	  0.033954	  0.096265	  0.220307	  0.590371	  0.099180	
2.367	  0.025652	  0.013639	  0.101638	  0.118798	  0.108485	  0.031787	  0.049215	  0.042336	  0.057253	  0.011630	  0.101657	  0.033449	  0.095164	  0.218014	  0.589615	  0.099270	
2.3675	  0.025281	  0.013201	  0.098971	  0.118217	  0.106593	  0.031367	  0.049960	  0.042614	  0.058013	  0.011710	  0.099448	  0.032955	  0.094062	  0.215722	  0.588821	  0.099365	
2.368	  0.024912	  0.012769	  0.096343	  0.117664	  0.104732	  0.030955	  0.050740	  0.042924	  0.058788	  0.011797	  0.097263	  0.032475	  0.092959	  0.213430	  0.587991	  0.099466	
2.3685	  0.024545	  0.012343	  0.093756	  0.117140	  0.102900	  0.030550	  0.051557	  0.043267	  0.059579	  0.011891	  0.095102	  0.032007	  0.091857	  0.211141	  0.587128	  0.099573	
2.369	  0.024181	  0.011923	  0.091209	  0.116645	  0.101098	  0.030154	  0.052410	  0.043642	  0.060386	  0.011991	  0.092965	  0.031553	  0.090754	  0.208855	  0.586231	  0.099687	
2.3695	  0.023819	  0.011509	  0.088702	  0.116180	  0.099324	  0.029765	  0.053302	  0.044052	  0.061209	  0.012098	  0.090852	  0.031111	  0.089653	  0.206573	  0.585304	  0.099808	
2.37	  0.023460	  0.011100	  0.086235	  0.115744	  0.097580	  0.029385	  0.054231	  0.044496	  0.062049	  0.012213	  0.088765	  0.030684	  0.088553	  0.204296	  0.584346	  0.099937	
2.3705	  0.023105	  0.010697	  0.083808	  0.115338	  0.095864	  0.029012	  0.055198	  0.044974	  0.062905	  0.012335	  0.086702	  0.030270	  0.087455	  0.202025	  0.583359	  0.100075	
2.371	  0.022753	  0.010301	  0.081422	  0.114962	  0.094176	  0.028647	  0.056205	  0.045489	  0.063778	  0.012464	  0.084665	  0.029870	  0.086359	  0.199762	  0.582344	  0.100222	
2.3715	  0.022405	  0.009910	  0.079075	  0.114617	  0.092517	  0.028291	  0.057251	  0.046041	  0.064668	  0.012601	  0.082654	  0.029485	  0.085266	  0.197507	  0.581302	  0.100378	
2.372	  0.022061	  0.009526	  0.076768	  0.114302	  0.090885	  0.027943	  0.058338	  0.046629	  0.065575	  0.012745	  0.080668	  0.029115	  0.084176	  0.195262	  0.580232	  0.100544	
2.3725	  0.021722	  0.009147	  0.074501	  0.114018	  0.089280	  0.027603	  0.059464	  0.047255	  0.066499	  0.012898	  0.078709	  0.028759	  0.083090	  0.193029	  0.579136	  0.100722	
2.373	  0.021388	  0.008775	  0.072274	  0.113764	  0.087703	  0.027272	  0.060632	  0.047920	  0.067441	  0.013058	  0.076776	  0.028418	  0.082008	  0.190808	  0.578015	  0.100911	
2.3735	  0.021059	  0.008410	  0.070086	  0.113542	  0.086153	  0.026949	  0.061841	  0.048623	  0.068401	  0.013226	  0.074870	  0.028093	  0.080930	  0.188601	  0.576867	  0.101112	
2.374	  0.020735	  0.008050	  0.067937	  0.113351	  0.084630	  0.026634	  0.063092	  0.049367	  0.069378	  0.013402	  0.072990	  0.027783	  0.079858	  0.186410	  0.575694	  0.101326	
2.3745	  0.020417	  0.007697	  0.065828	  0.113191	  0.083134	  0.026327	  0.064386	  0.050150	  0.070374	  0.013587	  0.071137	  0.027489	  0.078790	  0.184236	  0.574496	  0.101553	
2.375	  0.020104	  0.007350	  0.063757	  0.113062	  0.081665	  0.026029	  0.065721	  0.050974	  0.071387	  0.013779	  0.069310	  0.027211	  0.077728	  0.182080	  0.573273	  0.101794	
2.3755	  0.019798	  0.007010	  0.061725	  0.112964	  0.080222	  0.025739	  0.067100	  0.051840	  0.072419	  0.013981	  0.067511	  0.026949	  0.076672	  0.179943	  0.572024	  0.102050	
2.376	  0.019499	  0.006676	  0.059731	  0.112898	  0.078806	  0.025458	  0.068523	  0.052747	  0.073468	  0.014190	  0.065739	  0.026703	  0.075622	  0.177827	  0.570749	  0.102322	
2.3765	  0.019206	  0.006349	  0.057775	  0.112863	  0.077416	  0.025185	  0.069989	  0.053697	  0.074536	  0.014409	  0.063994	  0.026474	  0.074579	  0.175732	  0.569449	  0.102609	
2.377	  0.018920	  0.006028	  0.055857	  0.112860	  0.076053	  0.024921	  0.071499	  0.054690	  0.075622	  0.014636	  0.062276	  0.026262	  0.073542	  0.173660	  0.568122	  0.102912	
2.3775	  0.018641	  0.005714	  0.053976	  0.112887	  0.074716	  0.024665	  0.073054	  0.055726	  0.076726	  0.014872	  0.060585	  0.026067	  0.072513	  0.171612	  0.566768	  0.103233	
2.378	  0.018370	  0.005407	  0.052132	  0.112945	  0.073405	  0.024417	  0.074653	  0.056807	  0.077849	  0.015117	  0.058921	  0.025889	  0.071491	  0.169589	  0.565387	  0.103572	
2.3785	  0.018106	  0.005106	  0.050325	  0.113035	  0.072120	  0.024178	  0.076297	  0.057932	  0.078989	  0.015371	  0.057284	  0.025728	  0.070478	  0.167592	  0.563977	  0.103929	
2.379	  0.017851	  0.004812	  0.048555	  0.113155	  0.070861	  0.023947	  0.077987	  0.059102	  0.080148	  0.015635	  0.055673	  0.025585	  0.069472	  0.165621	  0.562538	  0.104304	
2.3795	  0.017603	  0.004524	  0.046820	  0.113305	  0.069628	  0.023725	  0.079722	  0.060317	  0.081325	  0.015907	  0.054090	  0.025459	  0.068475	  0.163678	  0.561070	  0.104699	
2.38	  0.017364	  0.004244	  0.045122	  0.113486	  0.068421	  0.023511	  0.081502	  0.061578	  0.082521	  0.016189	  0.052534	  0.025351	  0.067487	  0.161764	  0.559571	  0.105114	
2.3805	  0.017134	  0.003970	  0.043458	  0.113698	  0.067239	  0.023305	  0.083328	  0.062886	  0.083734	  0.016480	  0.051005	  0.025262	  0.066508	  0.159880	  0.558041	  0.105549	
2.381	  0.016912	  0.003703	  0.041829	  0.113939	  0.066082	  0.023108	  0.085200	  0.064240	  0.084966	  0.016780	  0.049502	  0.025190	  0.065538	  0.158026	  0.556480	  0.106005	
2.3815	  0.016700	  0.003443	  0.040235	  0.114210	  0.064950	  0.022919	  0.087119	  0.065641	  0.086216	  0.017090	  0.048026	  0.025137	  0.064578	  0.156203	  0.554888	  0.106482	
2.382	  0.016497	  0.003190	  0.038675	  0.114511	  0.063843	  0.022738	  0.089083	  0.067090	  0.087485	  0.017410	  0.046576	  0.025102	  0.063627	  0.154412	  0.553265	  0.106981	
2.3825	  0.016303	  0.002944	  0.037149	  0.114842	  0.062760	  0.022565	  0.091094	  0.068587	  0.088772	  0.017739	  0.045153	  0.025086	  0.062687	  0.152655	  0.551610	  0.107502	
2.383	  0.016119	  0.002705	  0.035656	  0.115202	  0.061702	  0.022401	  0.093151	  0.070132	  0.090078	  0.018078	  0.043756	  0.025089	  0.061757	  0.150931	  0.549924	  0.108045	
2.3835	  0.015945	  0.002473	  0.034195	  0.115590	  0.060668	  0.022244	  0.095255	  0.071726	  0.091403	  0.018427	  0.042385	  0.025110	  0.060838	  0.149241	  0.548207	  0.108612	
2.384	  0.015782	  0.002248	  0.032768	  0.116008	  0.059658	  0.022096	  0.097405	  0.073369	  0.092748	  0.018785	  0.041040	  0.025151	  0.059930	  0.147587	  0.546461	  0.109202	
2.3845	  0.015629	  0.002030	  0.031372	  0.116454	  0.058672	  0.021957	  0.099602	  0.075061	  0.094111	  0.019154	  0.039721	  0.025210	  0.059033	  0.145968	  0.544685	  0.109816	
2.385	  0.015486	  0.001820	  0.030008	  0.116929	  0.057709	  0.021825	  0.101845	  0.076802	  0.095495	  0.019532	  0.038428	  0.025289	  0.058146	  0.144387	  0.542880	  0.110454	
2.3855	  0.015354	  0.001616	  0.028676	  0.117432	  0.056768	  0.021701	  0.104135	  0.078594	  0.096898	  0.019920	  0.037160	  0.025387	  0.057272	  0.142843	  0.541047	  0.111117	
2.386	  0.015233	  0.001420	  0.027375	  0.117963	  0.055851	  0.021586	  0.106471	  0.080435	  0.098321	  0.020318	  0.035917	  0.025505	  0.056408	  0.141337	  0.539186	  0.111806	
2.3865	  0.015124	  0.001231	  0.026105	  0.118523	  0.054955	  0.021478	  0.108853	  0.082327	  0.099765	  0.020726	  0.034700	  0.025642	  0.055557	  0.139870	  0.537297	  0.112519	
2.387	  0.015026	  0.001049	  0.024864	  0.119110	  0.054082	  0.021378	  0.111281	  0.084270	  0.101230	  0.021144	  0.033507	  0.025799	  0.054717	  0.138443	  0.535381	  0.113259	
2.3875	  0.014939	  0.000875	  0.023654	  0.119725	  0.053230	  0.021287	  0.113755	  0.086263	  0.102715	  0.021572	  0.032339	  0.025976	  0.053889	  0.137055	  0.533438	  0.114025	
2.388	  0.014864	  0.000708	  0.022474	  0.120368	  0.052400	  0.021203	  0.116275	  0.088307	  0.104221	  0.022011	  0.031195	  0.026173	  0.053073	  0.135709	  0.531468	  0.114817	
2.3885	  0.014802	  0.000549	  0.021323	  0.121038	  0.051591	  0.021127	  0.118840	  0.090403	  0.105748	  0.022459	  0.030076	  0.026389	  0.052270	  0.134403	  0.529470	  0.115636	
2.389	  0.014751	  0.000397	  0.020201	  0.121735	  0.050803	  0.021060	  0.121451	  0.092549	  0.107296	  0.022917	  0.028981	  0.026626	  0.051478	  0.133140	  0.527446	  0.116482	
2.3895	  0.014713	  0.000252	  0.019108	  0.122459	  0.050036	  0.021000	  0.124106	  0.094747	  0.108866	  0.023385	  0.027909	  0.026883	  0.050700	  0.131918	  0.525395	  0.117356	
2.39	  0.014687	  0.000115	  0.018043	  0.123209	  0.049289	  0.020948	  0.126806	  0.096997	  0.110456	  0.023864	  0.026861	  0.027161	  0.049933	  0.130740	  0.523317	  0.118258	
2.3905	  0.014674	  0.000000	  0.017007	  0.123986	  0.048563	  0.020904	  0.129550	  0.099297	  0.112067	  0.024352	  0.025837	  0.027459	  0.049180	  0.129604	  0.521212	  0.119188	
2.391	  0.014673	  0.000000	  0.015998	  0.124789	  0.047857	  0.020867	  0.132339	  0.101650	  0.113700	  0.024850	  0.024836	  0.027777	  0.048439	  0.128511	  0.519081	  0.120146	
2.3915	  0.014686	  0.000000	  0.015017	  0.125619	  0.047171	  0.020839	  0.135170	  0.104054	  0.115354	  0.025359	  0.023857	  0.028117	  0.047712	  0.127463	  0.516924	  0.121133	
2.392	  0.014712	  0.000000	  0.014063	  0.126474	  0.046506	  0.020819	  0.138044	  0.106509	  0.117029	  0.025877	  0.022901	  0.028477	  0.046997	  0.126458	  0.514739	  0.122149	
2.3925	  0.014752	  0.000000	  0.013136	  0.127355	  0.045860	  0.020806	  0.140961	  0.109016	  0.118724	  0.026405	  0.021968	  0.028857	  0.046296	  0.125498	  0.512529	  0.123195	
2.393	  0.014805	  0.000000	  0.012235	  0.128262	  0.045234	  0.020801	  0.143920	  0.111574	  0.120440	  0.026943	  0.021057	  0.029259	  0.045608	  0.124582	  0.510291	  0.124270	
2.3935	  0.014871	  0.000000	  0.011360	  0.129194	  0.044627	  0.020804	  0.146921	  0.114183	  0.122177	  0.027491	  0.020168	  0.029682	  0.044934	  0.123711	  0.508027	  0.125376	
2.394	  0.014952	  0.000000	  0.010511	  0.130151	  0.044040	  0.020815	  0.149962	  0.116843	  0.123935	  0.028048	  0.019301	  0.030126	  0.044273	  0.122885	  0.505735	  0.126511	
2.3945	  0.015046	  0.000000	  0.009688	  0.131134	  0.043473	  0.020834	  0.153044	  0.119555	  0.125712	  0.028615	  0.018455	  0.030591	  0.043625	  0.122105	  0.503415	  0.127676	
2.395	  0.015155	  0.000000	  0.008889	  0.132142	  0.042925	  0.020860	  0.156166	  0.122316	  0.127509	  0.029192	  0.017631	  0.031077	  0.042992	  0.121370	  0.501068	  0.128872	
2.3955	  0.015279	  0.000000	  0.008115	  0.133175	  0.042397	  0.020894	  0.159326	  0.125129	  0.129326	  0.029778	  0.016827	  0.031585	  0.042372	  0.120681	  0.498691	  0.130098	
